# xmcd
#
# Track frame offsets:
#	150
#	19897
#	34828
#	53943
#	67677
#	80096
#	105369
#	114069
#	119126
#	128593
#	152696
#	182153
#	206487
#	231713
#	256670
#	277584
#	284762
#	300514
#	317071
#
# Disc length: 4639 seconds
#
# Revision: 1031930201
# Processed by: cddbd v1.5.2PL0 Copyright (c) Steve Scherf et al.
# Submitted via: EZCDAudioConverter 8.1.0.1
#
DISCID=03121d13
DTITLE=Hank Williams Iii - Ghost To A Ghost/Gutter Town
DYEAR=2011
DGENRE=Country
TTITLE0=Hank Williams Iii - Goin' To Gutter Town
TTITLE1=Hank Williams Iii - Gutter Stomp
TTITLE2=Hank Williams Iii - The Dirt Road
TTITLE3=Hank Williams Iii - Musha's
TTITLE4=Hank Williams Iii - The Dream Of Before
TTITLE5=Hank Williams Iii - Dyin' Day
TTITLE6=Hank Williams Iii Feat. Eddie Pleasant - I Promised
TTITLE7=Hank Williams Iii - Chord Of The Organ
TTITLE8=Hank Williams Iii Feat. Eddie Pleasant - Move Them Songs
TTITLE9=Hank Williams Iii - The Low Line
TTITLE10=Hank Williams Iii - I'll Be Gone
TTITLE11=Hank Williams Iii Feat. Trooper - Trooper's Chaos
TTITLE12=Hank Williams Iii - Chaos Queen
TTITLE13=Hank Williams Iii - Thunderpain
TTITLE14=Hank Williams Iii Feat. Tom Waits - Fadin' Moon
TTITLE15=Hank Williams Iii - The Round
TTITLE16=Hank Williams Iii - I'll Save My Tears
TTITLE17=Hank Williams Iii - It's Goin' Down
TTITLE18=Hank Williams Iii Feat. Les Claypool - With The Ship
EXTD=
EXTT0=
EXTT1=
EXTT2=
EXTT3=
EXTT4=
EXTT5=
EXTT6=
EXTT7=
EXTT8=
EXTT9=
EXTT10=
EXTT11=
EXTT12=
EXTT13=
EXTT14=
EXTT15=
EXTT16=
EXTT17=
EXTT18=
PLAYORDER=
